<svg width="86" height="26" viewBox="0 0 86 26" fill="none" xmlns="http://www.w3.org/2000/svg">
<path d="M4.4138 5.93206C2.937 5.93206 1.92482 4.89395 1.92482 3.47685C1.92482 2.05974 2.937 1.02163 4.4138 1.02163C5.8906 1.02163 6.90279 2.05974 6.90279 3.47685C6.90279 4.89395 5.8906 5.93206 4.4138 5.93206ZM6.58751 21.5696C6.58751 23.5964 7.24778 24.5192 9.01013 24.5192V25.2607H0V24.5192C2.05756 24.272 2.60514 23.5964 2.60514 21.5696V12.2431C2.60514 10.4305 2.00778 9.7879 0.165932 9.77143V9.0464L6.3884 7.84351L6.58751 8.02477V21.5696Z" fill="#0B0B0B"/>
<path d="M26.2238 13.5119V21.5696C26.2238 23.5964 26.7382 24.272 28.663 24.5192V25.2607H19.7856V24.5192C21.7436 24.272 22.2414 23.5964 22.2414 21.5696V13.6602C22.2414 11.4687 21.1629 10.4141 19.2546 10.4141C17.4294 10.4141 16.2181 11.551 15.5875 12.5892V21.5696C15.5875 23.5964 16.0853 24.272 18.0433 24.5192V25.2607H9.00002V24.5192C10.9056 24.5192 11.6052 23.5964 11.6052 21.5696V12.2431C11.6052 10.4305 11.0078 9.7879 9.16595 9.77143V9.0464L15.1893 7.84351L15.3884 8.02477V11.4192C16.0853 9.87029 17.7447 7.85999 20.8144 7.85999C24.133 7.85999 26.2238 9.77143 26.2238 13.5119Z" fill="#0B0B0B"/>
<path d="M39.5004 21.5696C39.5004 23.5964 40.1458 24.5183 41.9128 24.5183V25.2607H32.9129V24.5192C34.9704 24.272 35.518 23.5964 35.518 21.5696V4.38314C35.518 2.57056 34.9373 1.92792 33.0788 1.91144V1.18641L39.3013 0L39.5004 0.197737V21.5696Z" fill="#0B0B0B"/>
<path d="M46.3495 5.93206C44.8727 5.93206 43.8605 4.89395 43.8605 3.47685C43.8605 2.05974 44.8727 1.02163 46.3495 1.02163C47.8263 1.02163 48.8385 2.05974 48.8385 3.47685C48.8385 4.89395 47.8263 5.93206 46.3495 5.93206ZM48.5232 21.5696C48.5232 23.5964 49.0376 24.272 50.9458 24.5192V25.2607H41.9128V24.5183C43.8291 24.5183 44.5409 23.5964 44.5409 21.5696V12.2431C44.5409 10.4305 43.9435 9.7879 42.1016 9.77143V9.0464L48.3241 7.84351L48.5232 8.02477V21.5696Z" fill="#0B0B0B"/>
<path d="M66.0468 14.6159V15.2256H54.5974C54.7468 20.0042 57.0035 22.1629 59.9571 22.1629C62.5456 22.1629 64.1552 20.894 65.101 18.9332L65.8643 19.1968C65.3996 21.7509 63.6242 25.2607 58.9615 25.2607C54.166 25.2607 50.9469 22.031 50.9469 16.3461C50.9469 10.6777 54.166 7.44804 58.9117 7.44804C63.591 7.44804 66.0468 10.5294 66.0468 14.6159ZM54.614 13.8085H62.3299C62.2801 10.826 61.1684 8.8981 58.7623 8.8981C56.4559 8.8981 54.8463 10.5129 54.614 13.8085Z" fill="#0B0B0B"/>
<path d="M83.0586 21.1577C83.0586 22.9703 83.6393 23.58 85.4978 23.6459V24.3709L79.4744 25.2607L79.2753 25.0794V21.7015C78.5784 23.2339 76.9357 25.2442 73.8825 25.2442C70.5639 25.2442 68.5063 23.3328 68.5063 19.6088V11.6664C68.5063 9.85382 67.9089 9.21118 66.0505 9.17822V8.43671L72.2896 7.64577L72.4887 7.82703V19.444C72.4887 21.6356 73.5506 22.6901 75.4423 22.6901C77.2509 22.6901 78.4456 21.5532 79.0762 20.5151V11.6993C79.0762 9.88677 78.4954 9.24413 76.471 9.21118V8.48615L82.876 7.54691L83.0586 7.72816V21.1577Z" fill="#0B0B0B"/>
</svg>
