<svg width="120" height="36" viewBox="0 0 120 36" fill="none" xmlns="http://www.w3.org/2000/svg">
<path d="M6.18065 8.40005C4.12445 8.40005 2.71515 6.95465 2.71515 4.98157C2.71515 3.00848 4.12445 1.56308 6.18065 1.56308C8.23685 1.56308 9.64615 3.00848 9.64615 4.98157C9.64615 6.95465 8.23685 8.40005 6.18065 8.40005ZM9.20719 30.1728C9.20719 32.9948 10.1265 34.2796 12.5803 34.2796V35.312H0.0351562V34.2796C2.89997 33.9354 3.66238 32.9948 3.66238 30.1728V17.1872C3.66238 14.6634 2.83066 13.7687 0.26619 13.7457V12.7362L8.92995 11.0614L9.20719 11.3138V30.1728Z" fill="#0B0B0B"/>
<path d="M36.5475 18.9538V30.1728C36.5475 32.9948 37.2637 33.9354 39.9437 34.2796V35.312H27.5834V34.2796C30.3096 33.9354 31.0027 32.9948 31.0027 30.1728V19.1602C31.0027 16.1088 29.501 14.6405 26.8441 14.6405C24.3027 14.6405 22.6162 16.2236 21.7382 17.669V30.1728C21.7382 32.9948 22.4313 33.9354 25.1575 34.2796V35.312H12.5662V34.2796C15.2194 34.2796 16.1934 32.9948 16.1934 30.1728V17.1872C16.1934 14.6634 15.3617 13.7687 12.7972 13.7457V12.7362L21.1838 11.0614L21.461 11.3138V16.04C22.4313 13.8834 24.7417 11.0844 29.0158 11.0844C33.6365 11.0844 36.5475 13.7457 36.5475 18.9538Z" fill="#0B0B0B"/>
<path d="M55.033 30.1728C55.033 32.9948 55.9316 34.2784 58.3919 34.2784V35.312H45.8609V34.2796C48.7258 33.9354 49.4882 32.9948 49.4882 30.1728V6.24342C49.4882 3.71971 48.6796 2.82494 46.092 2.802V1.79251L54.7557 0.140625L55.033 0.415941V30.1728Z" fill="#0B0B0B"/>
<path d="M64.5692 8.40005C62.513 8.40005 61.1037 6.95465 61.1037 4.98157C61.1037 3.00848 62.513 1.56308 64.5692 1.56308C66.6254 1.56308 68.0347 3.00848 68.0347 4.98157C68.0347 6.95465 66.6254 8.40005 64.5692 8.40005ZM67.5958 30.1728C67.5958 32.9948 68.312 33.9354 70.9689 34.2796V35.312H58.3919V34.2784C61.06 34.2784 62.051 32.9948 62.051 30.1728V17.1872C62.051 14.6634 61.2193 13.7687 58.6548 13.7457V12.7362L67.3185 11.0614L67.5958 11.3138V30.1728Z" fill="#0B0B0B"/>
<path d="M91.9945 20.4909V21.3398H76.0531C76.2611 27.9932 79.4031 30.9988 83.5155 30.9988C87.1196 30.9988 89.3607 29.2322 90.6776 26.502L91.7403 26.869C91.0934 30.4252 88.6214 35.312 82.1293 35.312C75.4524 35.312 70.9704 30.8152 70.9704 22.8999C70.9704 15.0076 75.4524 10.5108 82.06 10.5108C88.5751 10.5108 91.9945 14.8011 91.9945 20.4909ZM76.0762 19.3667H86.8193C86.75 15.2141 85.2021 12.5298 81.8521 12.5298C78.6407 12.5298 76.3997 14.7782 76.0762 19.3667Z" fill="#0B0B0B"/>
<path d="M115.681 29.5992C115.681 32.1229 116.489 32.9718 119.077 33.0636V34.0731L110.69 35.312L110.413 35.0596V30.3563C109.443 32.49 107.155 35.2891 102.904 35.2891C98.2837 35.2891 95.4189 32.6277 95.4189 27.4426V16.3842C95.4189 13.8604 94.5872 12.9657 91.9996 12.9198V11.8874L100.686 10.7861L100.964 11.0385V27.2132C100.964 30.2646 102.442 31.7329 105.076 31.7329C107.594 31.7329 109.258 30.1499 110.136 28.7045V16.43C110.136 13.9063 109.327 13.0116 106.509 12.9657V11.9562L115.426 10.6484L115.681 10.9008V29.5992Z" fill="#0B0B0B"/>
</svg>
